# xmcd
#
# Track frame offsets:
#  150
#  27900
#  50362
#  74652
#  101602
#  123100
#  139417
#  162942
#  179520
#  206115
#  222492
#  247812
#
# Disc length: 3910 seconds
#
# Revision: 0
# Processed by: cddbd v1.4PL0 Copyright (c) Steve Scherf et al.
# Submitted via: AltoMP3_Maker 3.0
#
DISCID=b50f440c
DTITLE=Big Allanbik - Blues Special Reserve
DYEAR=1900
DGENRE=
TTITLE0=Red Hot Kisses
TTITLE1=I Feel So Good
TTITLE2=Down and Out
TTITLE3=Big Fat Woman
TTITLE4=Afternoon
TTITLE5=Where's Yvone
TTITLE6=I can't Get Next To You
TTITLE7=Clouds (Tribute to Roy Buchanan)
TTITLE8=One More Drag to You
TTITLE9='Fore Day Rider
TTITLE10=The Bed is Shakin'/La Canja
TTITLE11=A Fook For Your Stockings
EXTD=
EXTT0=
EXTT1=
EXTT2=
EXTT3=
EXTT4=
EXTT5=
EXTT6=
EXTT7=
EXTT8=
EXTT9=
EXTT10=
EXTT11=
PLAYORDER=
